<?xml version="1.0" encoding="utf-8"?>
<!-- Generator: Adobe Illustrator 26.0.1, SVG Export Plug-In . SVG Version: 6.00 Build 0)  -->
<svg version="1.1" id="Livello_1" xmlns="http://www.w3.org/2000/svg" xmlns:xlink="http://www.w3.org/1999/xlink" x="0px" y="0px"
	 viewBox="0 0 487.6 80.9" style="enable-background:new 0 0 487.6 80.9;" xml:space="preserve">
<style type="text/css">
	.st0{fill:#EDEDED;}
	.st1{fill:#2C6EB6;}
	.st2{fill:#489F68;}
	.st3{fill:#DC3A34;}
	.st4{fill:#FDC758;}
</style>
<path class="st0" d="M123,64.5L109.4,36c-0.1-0.2-0.2-0.3-0.4-0.3H93.4c-0.2,0-0.4,0.1-0.4,0.4v28.2c0,0.6-0.3,0.9-0.9,0.9h-4.7
	c-0.6,0-0.9-0.3-0.9-0.9V1.7c0-0.6,0.3-0.9,0.9-0.9h23.8c5.3,0,9.5,1.6,12.8,4.9c3.3,3.3,4.9,7.6,4.9,12.8c0,4.3-1.2,7.9-3.5,10.9
	c-2.3,3-5.5,4.9-9.5,5.8c-0.2,0.1-0.3,0.3-0.2,0.5L129.6,64c0.1,0.1,0.1,0.3,0.1,0.5c0,0.4-0.2,0.6-0.7,0.6h-4.9
	C123.5,65.1,123.1,64.9,123,64.5 M93.1,6.8v23.3c0,0.2,0.1,0.4,0.4,0.4h17.1c3.6,0,6.4-1.1,8.6-3.3s3.3-5.1,3.3-8.6
	c0-3.6-1.1-6.5-3.3-8.7c-2.2-2.2-5.1-3.4-8.6-3.4H93.4C93.2,6.4,93.1,6.6,93.1,6.8"/>
<path class="st0" d="M151.2,63.2c-3.3-1.8-5.9-4.3-7.7-7.5c-1.8-3.2-2.7-6.9-2.7-11.2V21.3c0-4.2,0.9-8,2.7-11.2
	c1.8-3.2,4.4-5.7,7.7-7.5c3.3-1.8,7.1-2.7,11.5-2.7s8.2,0.9,11.5,2.7c3.3,1.8,5.9,4.3,7.7,7.5c1.8,3.2,2.7,6.9,2.7,11.2v23.2
	c0,4.2-0.9,8-2.7,11.2c-1.8,3.2-4.4,5.7-7.7,7.5c-3.3,1.8-7.2,2.7-11.5,2.7S154.5,65,151.2,63.2 M173.9,56c2.8-2.8,4.2-6.6,4.2-11.2
	V21.3c0-4.7-1.4-8.4-4.2-11.3c-2.8-2.9-6.6-4.3-11.2-4.3c-4.6,0-8.3,1.4-11.1,4.3c-2.8,2.9-4.2,6.6-4.2,11.3v23.6
	c0,4.7,1.4,8.4,4.2,11.2c2.8,2.8,6.5,4.2,11.1,4.2C167.4,60.3,171.1,58.9,173.9,56"/>
<path class="st0" d="M232.3,32.1c3.3,1.4,5.8,3.3,7.5,6c1.7,2.6,2.6,5.8,2.6,9.6c0,5.5-1.8,9.8-5.3,12.9c-3.5,3.1-8.2,4.6-13.9,4.6
	H201c-0.6,0-0.9-0.3-0.9-0.9V1.7c0-0.6,0.3-0.9,0.9-0.9h21.6c5.9,0,10.6,1.5,14,4.4c3.4,2.9,5.1,7.1,5.1,12.4c0,3.4-0.8,6.2-2.4,8.6
	c-1.6,2.4-3.9,4.2-6.9,5.4C232,31.7,232,31.9,232.3,32.1 M206.6,6.8v22.1c0,0.2,0.1,0.4,0.4,0.4h15.6c3.9,0,6.9-1,9.2-3
	c2.3-2,3.5-4.7,3.5-8.1c0-3.6-1.2-6.4-3.5-8.5c-2.3-2.1-5.4-3.2-9.2-3.2H207C206.7,6.4,206.6,6.6,206.6,6.8 M232.5,56
	c2.3-2.2,3.4-5.2,3.4-8.9c0-3.7-1.2-6.7-3.5-9c-2.4-2.2-5.5-3.4-9.5-3.4H207c-0.2,0-0.4,0.1-0.4,0.4V59c0,0.2,0.1,0.4,0.4,0.4h16.3
	C227.1,59.3,230.2,58.2,232.5,56"/>
<path class="st0" d="M265.9,63.2c-3.3-1.8-5.9-4.3-7.7-7.5c-1.8-3.2-2.7-6.9-2.7-11.2V21.3c0-4.2,0.9-8,2.7-11.2
	c1.8-3.2,4.4-5.7,7.7-7.5c3.3-1.8,7.1-2.7,11.5-2.7c4.4,0,8.2,0.9,11.5,2.7c3.3,1.8,5.9,4.3,7.7,7.5c1.8,3.2,2.7,6.9,2.7,11.2v23.2
	c0,4.2-0.9,8-2.7,11.2c-1.8,3.2-4.4,5.7-7.7,7.5c-3.3,1.8-7.2,2.7-11.5,2.7C273.1,65.9,269.2,65,265.9,63.2 M288.6,56
	c2.8-2.8,4.2-6.6,4.2-11.2V21.3c0-4.7-1.4-8.4-4.2-11.3c-2.8-2.9-6.6-4.3-11.2-4.3c-4.6,0-8.3,1.4-11.1,4.3
	c-2.8,2.9-4.2,6.6-4.2,11.3v23.6c0,4.7,1.4,8.4,4.2,11.2c2.8,2.8,6.5,4.2,11.1,4.2C282.1,60.3,285.8,58.9,288.6,56"/>
<path class="st0" d="M353.7,1.7v4c0,0.6-0.3,0.9-0.9,0.9h-18c-0.2,0-0.4,0.1-0.4,0.4v57.3c0,0.6-0.3,0.9-0.9,0.9h-4.7
	c-0.6,0-0.9-0.3-0.9-0.9V6.9c0-0.2-0.1-0.4-0.4-0.4h-17.3c-0.6,0-0.9-0.3-0.9-0.9v-4c0-0.6,0.3-0.9,0.9-0.9h42.6
	C353.4,0.7,353.7,1,353.7,1.7"/>
<path class="st0" d="M366.3,64.2V1.7c0-0.6,0.3-0.9,0.9-0.9h4.7c0.6,0,0.9,0.3,0.9,0.9v62.6c0,0.6-0.3,0.9-0.9,0.9h-4.7
	C366.6,65.1,366.3,64.8,366.3,64.2"/>
<path class="st0" d="M398.4,63.4c-3.3-1.7-5.8-4.1-7.6-7.2c-1.8-3.1-2.7-6.7-2.7-10.7V20.2c0-4,0.9-7.5,2.7-10.6
	c1.8-3.1,4.3-5.4,7.6-7.1c3.2-1.7,7-2.5,11.3-2.5c4.3,0,8.1,0.8,11.3,2.5c3.3,1.7,5.8,4,7.6,7c1.8,3,2.7,6.5,2.7,10.4
	c0,0.3-0.1,0.6-0.3,0.7c-0.2,0.2-0.4,0.3-0.6,0.3l-4.7,0.3c-0.6,0-0.9-0.3-0.9-0.8v-0.3c0-4.4-1.4-7.8-4.1-10.4
	c-2.8-2.6-6.4-3.9-10.9-3.9c-4.5,0-8.2,1.3-10.9,4c-2.8,2.6-4.1,6.1-4.1,10.4v25.8c0,4.3,1.4,7.8,4.1,10.4c2.8,2.6,6.4,4,10.9,4
	c4.5,0,8.2-1.3,10.9-3.9c2.8-2.6,4.1-6.1,4.1-10.4v-0.2c0-0.6,0.3-0.8,0.9-0.8l4.7,0.3c0.6,0,0.9,0.3,0.9,0.8c0,4-0.9,7.5-2.7,10.5
	c-1.8,3-4.3,5.4-7.6,7c-3.3,1.7-7,2.5-11.3,2.5C405.4,66,401.7,65.1,398.4,63.4"/>
<path class="st0" d="M448.1,61.2c-4-3.1-6-7.3-6-12.5v-2.9c0-0.6,0.3-0.9,0.9-0.9h4.5c0.6,0,0.9,0.3,0.9,0.9v2.5
	c0,3.6,1.5,6.4,4.4,8.6c2.9,2.2,7,3.3,12.2,3.3c4.7,0,8.3-1,10.8-3c2.5-2,3.7-4.6,3.7-8c0-2.1-0.6-4-1.7-5.5c-1.1-1.5-2.9-3-5.2-4.3
	c-2.4-1.3-5.7-2.9-10-4.7c-4.6-1.8-8.2-3.5-10.7-4.8c-2.5-1.4-4.6-3.2-6.2-5.3c-1.6-2.2-2.3-4.9-2.3-8.2c0-5.2,1.8-9.2,5.4-12
	c3.6-2.9,8.5-4.3,14.8-4.3c6.8,0,12.2,1.6,16.1,4.8c3.9,3.2,5.9,7.4,5.9,12.7v2c0,0.6-0.3,0.9-0.9,0.9H480c-0.6,0-0.9-0.3-0.9-0.9
	v-1.7c0-3.6-1.4-6.5-4.2-8.7c-2.8-2.3-6.7-3.4-11.6-3.4c-4.4,0-7.7,0.9-10,2.7c-2.3,1.8-3.5,4.4-3.5,7.7c0,2.2,0.6,4,1.7,5.5
	c1.1,1.4,2.8,2.7,4.9,3.8c2.1,1.1,5.4,2.5,9.8,4.2c4.5,1.8,8.1,3.6,10.8,5.2c2.7,1.6,4.9,3.5,6.6,5.8c1.7,2.3,2.5,5.1,2.5,8.4
	c0,5.2-1.9,9.3-5.7,12.3c-3.8,3.1-9.1,4.6-15.8,4.6C457.6,65.9,452.1,64.3,448.1,61.2"/>
<rect x="86.6" y="72" class="st1" width="65.7" height="8"/>
<rect x="155.8" y="72" class="st1" width="12.1" height="8"/>
<rect x="171.1" y="72" class="st1" width="12.1" height="8"/>
<rect x="188.2" y="72" class="st2" width="65.7" height="8"/>
<rect x="257.5" y="72" class="st2" width="12.1" height="8"/>
<rect x="272.7" y="72" class="st2" width="12.1" height="8"/>
<rect x="289.3" y="72" class="st3" width="65.7" height="8"/>
<rect x="358.6" y="72" class="st3" width="12.1" height="8"/>
<rect x="373.9" y="72" class="st3" width="12.1" height="8"/>
<rect x="390.9" y="72" class="st4" width="65.7" height="8"/>
<rect x="460.2" y="72" class="st4" width="12.1" height="8"/>
<rect x="475.5" y="72" class="st4" width="12.1" height="8"/>
<path class="st0" d="M6.6,75.7C2.2,72.3,0,68,0,63c0-0.9,0.1-1.7,0.2-2.2l0.3-2.4c0-0.4,0.2-0.8,0.5-1.1c0.3-0.3,0.7-0.5,1.1-0.5
	h1.4c0.9,0,1.4,0.5,1.4,1.6l-0.3,2.2c-0.4,2.8,0.2,5.5,1.7,8c1.6,2.5,4,4.5,7.1,5.9c3.2,1.5,6.9,2.2,11.1,2.2c6.9,0,12.5-1.8,17-5.5
	c4.5-3.6,6.7-8.2,6.7-13.5c0-3-0.9-5.4-2.8-7.2c-1.8-1.8-3.9-3.3-6.3-4.3c-2.3-1-6.2-2.4-11.6-4.2c-7.4-2.4-13-5-16.8-7.6
	C7.1,31.8,5.2,28,5.2,22.9c0-6.8,2.7-12.2,8-16.4c5.3-4.2,12.1-6.3,20.3-6.3c7.3,0,13.1,1.7,17.4,5c4.3,3.3,6.5,7.6,6.5,12.9
	c0,0.9-0.1,1.7-0.2,2.2l-0.2,0.5c0,0.4-0.2,0.8-0.5,1.1c-0.3,0.3-0.7,0.5-1.3,0.5H54c-0.9,0-1.4-0.5-1.4-1.6l0.2-0.5l0.2-1.7
	c0-4.1-1.8-7.5-5.4-10.1c-3.6-2.6-8.4-4-14.6-4c-6.8,0-12.3,1.6-16.7,4.9c-4.4,3.3-6.6,7.4-6.6,12.5c0,2.7,0.8,5,2.5,6.9
	c1.7,1.8,3.8,3.4,6.3,4.5c2.5,1.2,6.1,2.5,10.8,4.1c5.3,1.7,9.4,3.2,12.5,4.5c3.1,1.3,5.7,3.2,7.8,5.6c2.2,2.4,3.2,5.5,3.2,9.3
	c0,4.5-1.2,8.6-3.6,12.3c-2.4,3.6-5.8,6.5-10.1,8.5c-4.3,2.1-9.3,3.1-14.9,3.1C16.9,80.9,11.1,79.2,6.6,75.7"/>
<path class="st0" d="M60.5,78.5l9.3-76.1c0-0.4,0.2-0.8,0.5-1.1c0.3-0.3,0.7-0.5,1.3-0.5H73c0.5,0,0.9,0.2,1.2,0.5
	c0.3,0.3,0.3,0.7,0.2,1.1l-9.3,76.1c-0.2,1.1-0.8,1.6-1.7,1.6h-1.6C60.7,80.1,60.3,79.5,60.5,78.5"/>
</svg>
